<?xml version="1.0" encoding="UTF-8"?>
<svg xmlns="http://www.w3.org/2000/svg" width="512" height="512" viewBox="0 0 512 512" role="img" aria-labelledby="title desc">
<title id="title">Snapped Antenna</title><desc id="desc">Kinked aerial on a cracked mounting base, with a snapped tip, rusty swivel joint, and loose exposed wiring. Nonfunctional junk intended only for sale, with no equipment or stat effects.</desc>
<defs><linearGradient id="metal" x1="100" y1="70" x2="403" y2="451" gradientUnits="userSpaceOnUse"><stop offset="0.000" stop-color="#adb4b5"/><stop offset="0.333" stop-color="#747e82"/><stop offset="0.667" stop-color="#343e43"/><stop offset="1.000" stop-color="#818a8d"/></linearGradient><linearGradient id="dark" x1="100" y1="70" x2="403" y2="451" gradientUnits="userSpaceOnUse"><stop offset="0.000" stop-color="#3e484e"/><stop offset="0.500" stop-color="#222b31"/><stop offset="1.000" stop-color="#10191f"/></linearGradient><linearGradient id="pale" x1="100" y1="70" x2="403" y2="451" gradientUnits="userSpaceOnUse"><stop offset="0.000" stop-color="#deddd0"/><stop offset="0.500" stop-color="#aeaFA4"/><stop offset="1.000" stop-color="#656f70"/></linearGradient><linearGradient id="rust" x1="100" y1="70" x2="403" y2="451" gradientUnits="userSpaceOnUse"><stop offset="0.000" stop-color="#b58761"/><stop offset="0.500" stop-color="#875b40"/><stop offset="1.000" stop-color="#4e352b"/></linearGradient><linearGradient id="plastic" x1="100" y1="70" x2="403" y2="451" gradientUnits="userSpaceOnUse"><stop offset="0.000" stop-color="#b6a477"/><stop offset="0.500" stop-color="#8e7a54"/><stop offset="1.000" stop-color="#544b39"/></linearGradient><linearGradient id="faded" x1="100" y1="70" x2="403" y2="451" gradientUnits="userSpaceOnUse"><stop offset="0.000" stop-color="#91a8ab"/><stop offset="0.500" stop-color="#5f7c82"/><stop offset="1.000" stop-color="#354e58"/></linearGradient><linearGradient id="glass" x1="100" y1="70" x2="403" y2="451" gradientUnits="userSpaceOnUse"><stop offset="0.000" stop-color="#b5c0b8"/><stop offset="0.500" stop-color="#788c88"/><stop offset="1.000" stop-color="#3d514f"/></linearGradient></defs><g stroke="#080b11" stroke-linecap="round" stroke-linejoin="round"><path d="M119 354L196 331 314 348 366 381 349 432 213 462 115 421 97 389Z" fill="url(#metal)" stroke="#080b11" stroke-width="13"/><path d="M133 366L199 347 301 365 330 389 312 414 209 437 127 407Z" fill="url(#dark)" stroke="#080b11" stroke-width="8"/><path d="M185 350L215 290 272 287 311 339 289 393 222 405 183 385Z" fill="url(#rust)" stroke="#080b11" stroke-width="11"/><circle cx="246" cy="350" r="35" fill="url(#metal)" stroke-width="8"/><circle cx="246" cy="350" r="17" fill="url(#dark)" stroke-width="6"/><path d="M237 328L218 245 283 197 250 135 288 85 301 94 277 138 310 203 245 256 260 327Z" fill="url(#metal)" stroke="#080b11" stroke-width="11"/><path d="M242 239L297 201 268 136 295 94" fill="none" stroke="#c2cbc7" stroke-width="5"/><path d="M286 89L302 96 324 62 313 41 300 45 306 60Z" fill="url(#rust)" stroke="#080b11" stroke-width="7"/><path d="M238 299Q146 257 136 291L160 322" fill="none" stroke="#080b11" stroke-width="16"/><path d="M238 299Q146 257 136 291L160 322" fill="none" stroke="#8c6747" stroke-width="7"/><path d="M160 322L143 340M161 320L180 335M163 317L173 310" fill="none" stroke="#bdab80" stroke-width="5"/><path d="M295 355L277 371 287 391 268 414 303 405 320 387Z" fill="url(#rust)" stroke="#080b11" stroke-width="6"/><path d="M176 367L168 389 199 413M303 371L292 389" fill="none" stroke="#65747a" stroke-width="6"/><path d="M229 269L254 264 269 309 242 313Z" fill="url(#pale)" stroke="#080b11" stroke-width="5"/><path d="M236 282L259 276M242 300L264 293" fill="none" stroke="#727b79" stroke-width="3"/><circle cx="132" cy="386" r="5" fill="url(#pale)" stroke-width="3"/><circle cx="214" cy="449" r="5" fill="url(#pale)" stroke-width="3"/><circle cx="336" cy="402" r="5" fill="url(#pale)" stroke-width="3"/></g></svg>