<?xml version="1.0" encoding="UTF-8"?>
<svg xmlns="http://www.w3.org/2000/svg" width="512" height="512" viewBox="0 0 512 512" role="img" aria-labelledby="title desc">
<title id="title">Clouded Optic Lens</title><desc id="desc">Scratched and clouded glass in a bent metal rim, with a fractured mounting tab and rust around the lower bracket. Nonfunctional junk intended only for sale, with no equipment or stat effects.</desc>
<defs><linearGradient id="metal" x1="100" y1="70" x2="403" y2="451" gradientUnits="userSpaceOnUse"><stop offset="0.000" stop-color="#adb4b5"/><stop offset="0.333" stop-color="#747e82"/><stop offset="0.667" stop-color="#343e43"/><stop offset="1.000" stop-color="#818a8d"/></linearGradient><linearGradient id="dark" x1="100" y1="70" x2="403" y2="451" gradientUnits="userSpaceOnUse"><stop offset="0.000" stop-color="#3e484e"/><stop offset="0.500" stop-color="#222b31"/><stop offset="1.000" stop-color="#10191f"/></linearGradient><linearGradient id="pale" x1="100" y1="70" x2="403" y2="451" gradientUnits="userSpaceOnUse"><stop offset="0.000" stop-color="#deddd0"/><stop offset="0.500" stop-color="#aeaFA4"/><stop offset="1.000" stop-color="#656f70"/></linearGradient><linearGradient id="rust" x1="100" y1="70" x2="403" y2="451" gradientUnits="userSpaceOnUse"><stop offset="0.000" stop-color="#b58761"/><stop offset="0.500" stop-color="#875b40"/><stop offset="1.000" stop-color="#4e352b"/></linearGradient><linearGradient id="plastic" x1="100" y1="70" x2="403" y2="451" gradientUnits="userSpaceOnUse"><stop offset="0.000" stop-color="#b6a477"/><stop offset="0.500" stop-color="#8e7a54"/><stop offset="1.000" stop-color="#544b39"/></linearGradient><linearGradient id="faded" x1="100" y1="70" x2="403" y2="451" gradientUnits="userSpaceOnUse"><stop offset="0.000" stop-color="#91a8ab"/><stop offset="0.500" stop-color="#5f7c82"/><stop offset="1.000" stop-color="#354e58"/></linearGradient><linearGradient id="glass" x1="100" y1="70" x2="403" y2="451" gradientUnits="userSpaceOnUse"><stop offset="0.000" stop-color="#b5c0b8"/><stop offset="0.500" stop-color="#788c88"/><stop offset="1.000" stop-color="#3d514f"/></linearGradient></defs><g stroke="#080b11" stroke-linecap="round" stroke-linejoin="round"><path d="M144 320L81 349 75 382 114 408 163 377Z" fill="url(#rust)" stroke="#080b11" stroke-width="11"/><path d="M311 127L330 81 365 70 401 100 389 126 367 115 356 139Z" fill="url(#metal)" stroke="#080b11" stroke-width="10"/><circle cx="113" cy="376" r="11" fill="url(#dark)" stroke-width="5"/><path d="M101 199L146 130 251 102 343 133 399 207 387 291 350 347 263 376 158 349 107 288Z" fill="url(#metal)" stroke="#080b11" stroke-width="14"/><path d="M128 208L167 154 248 130 327 154 370 213 359 283 329 324 262 347 179 325 134 277Z" fill="url(#dark)" stroke="#080b11" stroke-width="10"/><path d="M151 212L181 175 249 155 312 174 346 218 338 270 311 303 263 321 197 305 158 264Z" fill="url(#glass)" stroke="#080b11" stroke-width="9"/><path d="M170 213L201 184 248 177 282 190 253 191 208 209 181 237Z" fill="url(#pale)" stroke="#080b11" stroke-width="0"/><path d="M198 238L289 204M186 270L312 230M219 288L298 264" fill="none" stroke="#b5c0b6" stroke-width="5"/><path d="M308 177L282 213 298 246 270 276 274 317" fill="none" stroke="#53665f" stroke-width="5"/><path d="M370 283L390 291 367 337 341 344 345 322Z" fill="url(#rust)" stroke="#080b11" stroke-width="6"/><circle cx="149" cy="174" r="5" fill="url(#pale)" stroke-width="3"/><circle cx="330" cy="174" r="5" fill="url(#pale)" stroke-width="3"/><circle cx="156" cy="296" r="5" fill="url(#pale)" stroke-width="3"/><circle cx="329" cy="307" r="5" fill="url(#pale)" stroke-width="3"/></g></svg>