<?xml version="1.0" encoding="UTF-8"?>
<svg xmlns="http://www.w3.org/2000/svg" width="512" height="512" viewBox="0 0 512 512" role="img" aria-labelledby="title desc">
<title id="title">Pikk Patch</title><desc id="desc">Excited and mischievous goblin-like mechanic mission contact. Duct-Tape Dynamics visual affiliation. Head only, no shoulders, neck, or bust. Portrait and affiliation have no effect on mission rewards.</desc><defs><linearGradient id="metal" x1="115" y1="75" x2="378" y2="452" gradientUnits="userSpaceOnUse"><stop offset="0.000" stop-color="#b8c3c9"/><stop offset="0.500" stop-color="#606c75"/><stop offset="1.000" stop-color="#202a32"/></linearGradient><linearGradient id="glass" x1="115" y1="75" x2="378" y2="452" gradientUnits="userSpaceOnUse"><stop offset="0.000" stop-color="#fafbf8"/><stop offset="0.500" stop-color="#b5c0bb"/><stop offset="1.000" stop-color="#495655"/></linearGradient><linearGradient id="dark" x1="115" y1="75" x2="378" y2="452" gradientUnits="userSpaceOnUse"><stop offset="0.000" stop-color="#36414a"/><stop offset="0.500" stop-color="#1a222b"/><stop offset="1.000" stop-color="#080d14"/></linearGradient><linearGradient id="skin" x1="115" y1="75" x2="378" y2="452" gradientUnits="userSpaceOnUse"><stop offset="0.000" stop-color="#d4b58b"/><stop offset="0.500" stop-color="#ab885c"/><stop offset="1.000" stop-color="#6e5c42"/></linearGradient><linearGradient id="light" x1="115" y1="75" x2="378" y2="452" gradientUnits="userSpaceOnUse"><stop offset="0.000" stop-color="#deded8"/><stop offset="0.500" stop-color="#a3a6a4"/><stop offset="1.000" stop-color="#686e70"/></linearGradient><linearGradient id="trim" x1="115" y1="75" x2="378" y2="452" gradientUnits="userSpaceOnUse"><stop offset="0.000" stop-color="#ba8760"/><stop offset="0.500" stop-color="#865738"/><stop offset="1.000" stop-color="#503023"/></linearGradient><linearGradient id="accent" x1="115" y1="75" x2="378" y2="452" gradientUnits="userSpaceOnUse"><stop offset="0.000" stop-color="#ffcb84"/><stop offset="0.500" stop-color="#ee8c35"/><stop offset="1.000" stop-color="#97431e"/></linearGradient></defs>
<g stroke="#080b11" stroke-linecap="round" stroke-linejoin="round"><path d="M160 203L97 150 38 128 60 180 48 207 91 239 146 264Z" fill="url(#skin)" stroke="#080b11" stroke-width="12"/><path d="M352 203L418 156 478 114 459 185 466 211 416 250 360 266Z" fill="url(#skin)" stroke="#080b11" stroke-width="12"/><path d="M68 158L140 218 128 236 86 211Z M438 155L371 220 387 237 438 202Z" fill="url(#trim)" stroke="#080b11" stroke-width="7"/><path d="M150 166L195 113 273 102 345 136 373 199 362 288 325 354 274 397 215 391 170 345 145 282Z" fill="url(#skin)" stroke="#080b11" stroke-width="13"/><path d="M166 163L138 135 188 132 186 91 228 119 253 72 266 113 314 99 309 132 353 132 339 170Z" fill="url(#dark)" stroke="#080b11" stroke-width="11"/><path d="M140 180L191 153 339 163 370 199 359 227 191 202 145 221Z" fill="url(#dark)" stroke="#080b11" stroke-width="9"/><circle cx="198" cy="177" r="35" fill="url(#accent)" stroke-width="9"/><circle cx="198" cy="177" r="24" fill="url(#glass)" stroke-width="6"/><circle cx="302" cy="182" r="36" fill="url(#accent)" stroke-width="9"/><circle cx="302" cy="182" r="24" fill="url(#glass)" stroke-width="6"/><path d="M234 178L265 181" fill="none" stroke="#899395" stroke-width="8"/><path d="M184 172L203 162M290 177L310 168" fill="none" stroke="#f3f4ed" stroke-width="5"/><path d="M173 260Q203 217.5 233 260Q203 302.5 173 260Z" fill="url(#light)" stroke="#080b11" stroke-width="6"/><circle cx="206" cy="260" r="18.0" fill="url(#accent)" stroke-width="3"/><circle cx="206" cy="260" r="8.75" fill="#101821" stroke-width="1"/><circle cx="203" cy="255" r="3" fill="#fff9ec" stroke-width="0"/><path d="M282 253Q310 208.8 338 253Q310 297.2 282 253Z" fill="url(#light)" stroke="#080b11" stroke-width="6"/><circle cx="308" cy="253" r="18.72" fill="url(#accent)" stroke-width="3"/><circle cx="308" cy="253" r="9.1" fill="#101821" stroke-width="1"/><circle cx="305" cy="248" r="3" fill="#fff9ec" stroke-width="0"/><path d="M177 230L215 220M286 216L332 221" fill="none" stroke="#5e4e3b" stroke-width="8"/><path d="M253 246L226 292 243 309 278 300 282 289Z" fill="url(#skin)" stroke="#080b11" stroke-width="8"/><path d="M202 327Q255 351 314 316L300 345 255 364 221 353Z" fill="url(#dark)" stroke="#080b11" stroke-width="8"/><path d="M219 337L235 343 233 358 218 351Z M280 336L295 330 292 348 280 354Z" fill="url(#light)" stroke="#080b11" stroke-width="5"/><path d="M114 184L145 199 151 227 123 215Z" fill="url(#light)" stroke="#080b11" stroke-width="5"/><path d="M124 193L125 211M136 202L138 217" fill="none" stroke="#787e7b" stroke-width="3"/><path d="M360 220L388 219 396 253 377 273 355 261Z" fill="url(#metal)" stroke="#080b11" stroke-width="8"/><circle cx="376" cy="243" r="9" fill="url(#trim)" stroke-width="4"/></g></svg>