<?xml version="1.0" encoding="UTF-8"?>
<svg xmlns="http://www.w3.org/2000/svg" width="512" height="512" viewBox="0 0 512 512" role="img" aria-labelledby="title desc">
<title id="title">Ssar Keel</title><desc id="desc">Watchful with a crooked smile frilled reptilian humanoid mission contact. Independent visual affiliation. Head only, no shoulders, neck, or bust. Portrait and affiliation have no effect on mission rewards.</desc><defs><linearGradient id="metal" x1="115" y1="75" x2="378" y2="452" gradientUnits="userSpaceOnUse"><stop offset="0.000" stop-color="#b8c3c9"/><stop offset="0.500" stop-color="#606c75"/><stop offset="1.000" stop-color="#202a32"/></linearGradient><linearGradient id="glass" x1="115" y1="75" x2="378" y2="452" gradientUnits="userSpaceOnUse"><stop offset="0.000" stop-color="#fafbf8"/><stop offset="0.500" stop-color="#b5c0bb"/><stop offset="1.000" stop-color="#495655"/></linearGradient><linearGradient id="dark" x1="115" y1="75" x2="378" y2="452" gradientUnits="userSpaceOnUse"><stop offset="0.000" stop-color="#36414a"/><stop offset="0.500" stop-color="#1a222b"/><stop offset="1.000" stop-color="#080d14"/></linearGradient><linearGradient id="skin" x1="115" y1="75" x2="378" y2="452" gradientUnits="userSpaceOnUse"><stop offset="0.000" stop-color="#a4c9b6"/><stop offset="0.500" stop-color="#68a391"/><stop offset="1.000" stop-color="#386c68"/></linearGradient><linearGradient id="light" x1="115" y1="75" x2="378" y2="452" gradientUnits="userSpaceOnUse"><stop offset="0.000" stop-color="#d0dbb5"/><stop offset="0.500" stop-color="#9bb887"/><stop offset="1.000" stop-color="#5f8a74"/></linearGradient><linearGradient id="trim" x1="115" y1="75" x2="378" y2="452" gradientUnits="userSpaceOnUse"><stop offset="0.000" stop-color="#d7977f"/><stop offset="0.500" stop-color="#b2675f"/><stop offset="1.000" stop-color="#703e4d"/></linearGradient><linearGradient id="accent" x1="115" y1="75" x2="378" y2="452" gradientUnits="userSpaceOnUse"><stop offset="0.000" stop-color="#f0d284"/><stop offset="0.500" stop-color="#c09e46"/><stop offset="1.000" stop-color="#79642d"/></linearGradient></defs>
<g stroke="#080b11" stroke-linecap="round" stroke-linejoin="round"><path d="M193 155L126 91 131 146 62 146 95 202 41 236 99 263 54 326 128 322 129 382 203 339Z" fill="url(#trim)" stroke="#080b11" stroke-width="12"/><path d="M91 169L164 224M73 237L156 254M89 307L173 284" fill="none" stroke="#edb18e" stroke-width="7"/><g transform="translate(512 0) scale(-1 1)"><path d="M193 155L126 91 131 146 62 146 95 202 41 236 99 263 54 326 128 322 129 382 203 339Z" fill="url(#trim)" stroke="#080b11" stroke-width="12"/><path d="M91 169L164 224M73 237L156 254M89 307L173 284" fill="none" stroke="#edb18e" stroke-width="7"/></g><path d="M188 134L226 87 292 88 333 132 360 219 340 329 307 384 256 423 201 391 173 338 151 246Z" fill="url(#skin)" stroke="#080b11" stroke-width="13"/><path d="M213 131L234 103H282L310 139 293 209 256 230 220 207Z" fill="url(#light)" stroke="#080b11" stroke-width="8"/><path d="M194 231Q222 214 245 240L225 269 190 259Z M276 240Q302 215 333 226L334 254 298 268Z" fill="url(#light)" stroke="#080b11" stroke-width="7"/><circle cx="215" cy="242" r="15" fill="url(#accent)" stroke-width="4"/><circle cx="308" cy="240" r="15" fill="url(#accent)" stroke-width="4"/><path d="M214 229L220 241 214 255 210 243Z M308 227L313 240 307 254 303 241Z" fill="url(#dark)" stroke="#080b11" stroke-width="3"/><path d="M184 215L228 220M288 216L337 207" fill="none" stroke="#335b57" stroke-width="9"/><path d="M216 275L256 259 296 273 315 312 288 348 224 351 191 319Z" fill="url(#skin)" stroke="#080b11" stroke-width="9"/><path d="M235 283L248 293 234 300Z M268 291L281 281 282 298Z" fill="url(#dark)" stroke="#080b11" stroke-width="4"/><path d="M205 324Q255 344 310 317" fill="none" stroke="#294f4d" stroke-width="8"/><path d="M222 332L229 336 224 348Z M286 334L294 330 293 344Z" fill="url(#light)" stroke="#080b11" stroke-width="3"/><path d="M223 368L256 382 291 365 275 404 255 418 236 402Z" fill="url(#light)" stroke="#080b11" stroke-width="7"/><path d="M187 172L200 187 186 201 174 188Z M324 171L338 184 324 199 313 185Z" fill="url(#trim)" stroke="#080b11" stroke-width="5"/></g></svg>