<?xml version="1.0" encoding="UTF-8"?>
<svg xmlns="http://www.w3.org/2000/svg" width="512" height="512" viewBox="0 0 512 512" role="img" aria-labelledby="title desc">
<title id="title">Morrow Cap</title><desc id="desc">Cheerful and knowing mushroom humanoid mission contact. Independent visual affiliation. Head only, no shoulders, neck, or bust. Portrait and affiliation have no effect on mission rewards.</desc><defs><linearGradient id="metal" x1="115" y1="75" x2="378" y2="452" gradientUnits="userSpaceOnUse"><stop offset="0.000" stop-color="#b8c3c9"/><stop offset="0.500" stop-color="#606c75"/><stop offset="1.000" stop-color="#202a32"/></linearGradient><linearGradient id="glass" x1="115" y1="75" x2="378" y2="452" gradientUnits="userSpaceOnUse"><stop offset="0.000" stop-color="#fafbf8"/><stop offset="0.500" stop-color="#b5c0bb"/><stop offset="1.000" stop-color="#495655"/></linearGradient><linearGradient id="dark" x1="115" y1="75" x2="378" y2="452" gradientUnits="userSpaceOnUse"><stop offset="0.000" stop-color="#36414a"/><stop offset="0.500" stop-color="#1a222b"/><stop offset="1.000" stop-color="#080d14"/></linearGradient><linearGradient id="skin" x1="115" y1="75" x2="378" y2="452" gradientUnits="userSpaceOnUse"><stop offset="0.000" stop-color="#eadcb6"/><stop offset="0.500" stop-color="#c3b087"/><stop offset="1.000" stop-color="#8d7d61"/></linearGradient><linearGradient id="light" x1="115" y1="75" x2="378" y2="452" gradientUnits="userSpaceOnUse"><stop offset="0.000" stop-color="#e4d6aa"/><stop offset="0.500" stop-color="#bca572"/><stop offset="1.000" stop-color="#7e7253"/></linearGradient><linearGradient id="trim" x1="115" y1="75" x2="378" y2="452" gradientUnits="userSpaceOnUse"><stop offset="0.000" stop-color="#d69777"/><stop offset="0.500" stop-color="#ae6554"/><stop offset="1.000" stop-color="#713f48"/></linearGradient><linearGradient id="accent" x1="115" y1="75" x2="378" y2="452" gradientUnits="userSpaceOnUse"><stop offset="0.000" stop-color="#91b9af"/><stop offset="0.500" stop-color="#5f938c"/><stop offset="1.000" stop-color="#3d626b"/></linearGradient></defs>
<g stroke="#080b11" stroke-linecap="round" stroke-linejoin="round"><path d="M163 202Q154 296 184 369L223 418 284 423 324 374 346 283 337 205Z" fill="url(#skin)" stroke="#080b11" stroke-width="13"/><path d="M172 221Q237 242 337 216L330 268 279 284 212 279 176 255Z" fill="url(#trim)" stroke="#080b11" stroke-width="0"/><path d="M187 296Q213 267.1 239 296Q213 324.9 187 296Z" fill="url(#light)" stroke="#080b11" stroke-width="6"/><circle cx="216" cy="296" r="12.24" fill="url(#accent)" stroke-width="3"/><circle cx="216" cy="296" r="5.949999999999999" fill="#101821" stroke-width="1"/><circle cx="213" cy="291" r="3" fill="#fff9ec" stroke-width="0"/><path d="M273 287Q299 256.4 325 287Q299 317.6 273 287Z" fill="url(#light)" stroke="#080b11" stroke-width="6"/><circle cx="300" cy="287" r="12.959999999999999" fill="url(#accent)" stroke-width="3"/><circle cx="300" cy="287" r="6.3" fill="#101821" stroke-width="1"/><circle cx="297" cy="282" r="3" fill="#fff9ec" stroke-width="0"/><path d="M188 275L230 271M277 264Q301 252 323 263" fill="none" stroke="#8e765e" stroke-width="8"/><path d="M251 289L242 333 261 340 275 329" fill="none" stroke="#8d7962" stroke-width="6"/><path d="M221 363Q259 386 303 355" fill="none" stroke="#765d4d" stroke-width="8"/><path d="M197 363L208 392M310 345L304 389" fill="none" stroke="#b8a689" stroke-width="5"/><path d="M55 205Q73 99 171 69Q221 35 283 58Q395 51 448 161L467 215Q416 264 326 253L245 266 143 253 66 238Z" fill="url(#trim)" stroke="#080b11" stroke-width="14"/><path d="M57 208Q139 228 250 223Q372 203 466 215Q422 269 320 257L242 272 131 254 65 238Z" fill="url(#skin)" stroke="#080b11" stroke-width="10"/><path d="M97 231L145 233M172 241L215 244M272 245L312 237M346 235L393 231" fill="none" stroke="#9c856b" stroke-width="5"/><path d="M94 174Q107 125 153 112Q177 124 162 158Q139 184 94 174Z" fill="url(#light)" stroke="#080b11" stroke-width="8"/><path d="M222 83Q254 70 278 93L271 130 231 132 209 110Z" fill="url(#light)" stroke="#080b11" stroke-width="8"/><path d="M337 117Q379 100 411 144L395 176 355 172 334 150Z" fill="url(#accent)" stroke="#080b11" stroke-width="8"/><circle cx="205" cy="180" r="15" fill="url(#accent)" stroke-width="5"/><circle cx="300" cy="175" r="11" fill="url(#light)" stroke-width="5"/><path d="M94 135Q127 88 183 79" fill="none" stroke="#e8ac84" stroke-width="6"/></g></svg>