<?xml version="1.0" encoding="UTF-8"?>
<svg xmlns="http://www.w3.org/2000/svg" width="512" height="512" viewBox="0 0 512 512" role="img" aria-labelledby="title desc">
<title id="title">Compliance Treads</title><desc id="desc">Low rectangular ankle boxes with vertical square toe walls, right-angle green housings, straight dark green slab soles, and pink tracking panels. A staggered pair of boots in three-quarter view.</desc>
<defs><linearGradient id="main" x1="24" y1="24" x2="247" y2="309" gradientUnits="userSpaceOnUse"><stop offset="0.000" stop-color="#b0cb88"/><stop offset="0.333" stop-color="#698c51"/><stop offset="0.667" stop-color="#304e35"/><stop offset="1.000" stop-color="#7b9b5f"/></linearGradient><linearGradient id="dark" x1="24" y1="24" x2="247" y2="309" gradientUnits="userSpaceOnUse"><stop offset="0.000" stop-color="#426648"/><stop offset="0.500" stop-color="#1b392b"/><stop offset="1.000" stop-color="#0c211b"/></linearGradient><linearGradient id="light" x1="24" y1="24" x2="247" y2="309" gradientUnits="userSpaceOnUse"><stop offset="0.000" stop-color="#d5e4b2"/><stop offset="0.500" stop-color="#96b278"/><stop offset="1.000" stop-color="#527149"/></linearGradient><linearGradient id="accent" x1="24" y1="24" x2="247" y2="309" gradientUnits="userSpaceOnUse"><stop offset="0.000" stop-color="#ffe1f0"/><stop offset="0.500" stop-color="#f17db0"/><stop offset="1.000" stop-color="#983560"/></linearGradient></defs><g stroke="#080b11" stroke-linecap="round" stroke-linejoin="round"><g transform="translate(231 38) scale(.87)"><path d="M18 266L148 293 260 265V296L148 326 18 298Z" fill="url(#dark)" stroke="#080b11" stroke-width="11"/><path d="M43 283V303M81 292V311M118 301V319M178 299V316M217 289V306" fill="none" stroke="#567b4c" stroke-width="6"/><path d="M28 122L93 99 160 120V208L260 230V264L148 294 28 267Z" fill="url(#main)" stroke="#080b11" stroke-width="11"/><path d="M160 120L93 142 28 122V166L93 187 160 167Z" fill="url(#dark)" stroke="#080b11" stroke-width="9"/><path d="M43 125L94 111 141 124 94 140Z" fill="url(#light)" stroke="#080b11" stroke-width="6"/><path d="M58 125L94 117 124 126 94 133Z" fill="url(#dark)" stroke="#080b11" stroke-width="4"/><path d="M93 186L160 167V208L260 230 148 259 93 240Z" fill="url(#dark)" stroke="#080b11" stroke-width="8"/><path d="M148 259L260 230V265L148 294Z" fill="url(#main)" stroke="#080b11" stroke-width="9"/><path d="M107 210L154 197 238 231 150 253 108 241Z" fill="url(#light)" stroke="#080b11" stroke-width="7"/><path d="M28 196L88 210V242L28 228Z" fill="url(#dark)" stroke="#080b11" stroke-width="7"/><path d="M39 207L69 214V229L39 222Z" fill="url(#accent)" stroke="#080b11" stroke-width="4"/><path d="M169 270L241 251" fill="none" stroke="#bad29e" stroke-width="5"/><path d="M44 247L74 253" fill="none" stroke="#bad29e" stroke-width="5"/><circle cx="38" cy="171" r="4" fill="url(#light)" stroke-width="2.5"/><circle cx="147" cy="180" r="4" fill="url(#light)" stroke-width="2.5"/><circle cx="158" cy="279" r="4" fill="url(#light)" stroke-width="2.5"/><circle cx="248" cy="257" r="4" fill="url(#light)" stroke-width="2.5"/></g><g transform="translate(51 151)"><path d="M18 266L148 293 260 265V296L148 326 18 298Z" fill="url(#dark)" stroke="#080b11" stroke-width="11"/><path d="M43 283V303M81 292V311M118 301V319M178 299V316M217 289V306" fill="none" stroke="#567b4c" stroke-width="6"/><path d="M28 122L93 99 160 120V208L260 230V264L148 294 28 267Z" fill="url(#main)" stroke="#080b11" stroke-width="11"/><path d="M160 120L93 142 28 122V166L93 187 160 167Z" fill="url(#dark)" stroke="#080b11" stroke-width="9"/><path d="M43 125L94 111 141 124 94 140Z" fill="url(#light)" stroke="#080b11" stroke-width="6"/><path d="M58 125L94 117 124 126 94 133Z" fill="url(#dark)" stroke="#080b11" stroke-width="4"/><path d="M93 186L160 167V208L260 230 148 259 93 240Z" fill="url(#dark)" stroke="#080b11" stroke-width="8"/><path d="M148 259L260 230V265L148 294Z" fill="url(#main)" stroke="#080b11" stroke-width="9"/><path d="M107 210L154 197 238 231 150 253 108 241Z" fill="url(#light)" stroke="#080b11" stroke-width="7"/><path d="M28 196L88 210V242L28 228Z" fill="url(#dark)" stroke="#080b11" stroke-width="7"/><path d="M39 207L69 214V229L39 222Z" fill="url(#accent)" stroke="#080b11" stroke-width="4"/><path d="M169 270L241 251" fill="none" stroke="#bad29e" stroke-width="5"/><path d="M44 247L74 253" fill="none" stroke="#bad29e" stroke-width="5"/><circle cx="38" cy="171" r="4" fill="url(#light)" stroke-width="2.5"/><circle cx="147" cy="180" r="4" fill="url(#light)" stroke-width="2.5"/><circle cx="158" cy="279" r="4" fill="url(#light)" stroke-width="2.5"/><circle cx="248" cy="257" r="4" fill="url(#light)" stroke-width="2.5"/></g></g></svg>