<?xml version="1.0" encoding="UTF-8"?>
<svg xmlns="http://www.w3.org/2000/svg" width="512" height="512" viewBox="0 0 512 512" role="img" aria-labelledby="title desc">
<title id="title">Signal Pendant</title><desc id="desc">Angular communications pendant on a short black neck cord, with a folding side antenna, a sky blue signal grille, and a compact lower connector. Standalone neckwear, without a wearer or mannequin.</desc>
<defs><linearGradient id="main" x1="105" y1="90" x2="395" y2="425" gradientUnits="userSpaceOnUse"><stop offset="0.000" stop-color="#b8c3c9"/><stop offset="0.333" stop-color="#606c75"/><stop offset="0.667" stop-color="#202a32"/><stop offset="1.000" stop-color="#7b8891"/></linearGradient><linearGradient id="dark" x1="105" y1="90" x2="395" y2="425" gradientUnits="userSpaceOnUse"><stop offset="0.000" stop-color="#293139"/><stop offset="0.500" stop-color="#10161c"/><stop offset="1.000" stop-color="#05090d"/></linearGradient><linearGradient id="light" x1="105" y1="90" x2="395" y2="425" gradientUnits="userSpaceOnUse"><stop offset="0.000" stop-color="#dce4e7"/><stop offset="0.500" stop-color="#96a4ad"/><stop offset="1.000" stop-color="#4d5b65"/></linearGradient><linearGradient id="accent" x1="105" y1="90" x2="395" y2="425" gradientUnits="userSpaceOnUse"><stop offset="0.000" stop-color="#e3f5ff"/><stop offset="0.500" stop-color="#82c9f4"/><stop offset="1.000" stop-color="#315c7d"/></linearGradient></defs><g stroke="#080b11" stroke-linecap="round" stroke-linejoin="round"><path d="M224 262C176 217 127 139 154 94C180 51 326 51 353 94C380 139 333 217 288 262" fill="none" stroke="#080b11" stroke-width="24"/><path d="M224 262C176 217 127 139 154 94C180 51 326 51 353 94C380 139 333 217 288 262" fill="none" stroke="#303d46" stroke-width="12"/><path d="M156 115Q160 76 220 77" fill="none" stroke="#778996" stroke-width="5"/><path d="M222 234H290L300 273 276 292H236L211 272Z" fill="url(#main)" stroke="#080b11" stroke-width="10"/><rect x="237" y="239" width="38" height="24" rx="3" fill="url(#dark)" stroke-width="5"/><path d="M329 276L361 232 397 213 408 230 373 253 349 289Z" fill="url(#main)" stroke="#080b11" stroke-width="9"/><path d="M174 275L223 255H292L346 284 362 343 310 411H211L154 344Z" fill="url(#main)" stroke="#080b11" stroke-width="13"/><path d="M174 304L206 281H302L333 303 340 338 302 386H216L176 337Z" fill="url(#dark)" stroke="#080b11" stroke-width="9"/><path d="M202 300H303L313 324 298 349H212L193 326Z" fill="url(#main)" stroke="#080b11" stroke-width="7"/><path d="M214 316H289M223 335H279" fill="none" stroke="#82c9f4" stroke-width="6"/><circle cx="259" cy="369" r="13" fill="url(#accent)" stroke-width="5"/><path d="M233 410H286L276 439H243Z" fill="url(#dark)" stroke="#080b11" stroke-width="8"/><circle cx="172" cy="324" r="5" fill="url(#light)" stroke-width="3"/><circle cx="344" cy="329" r="5" fill="url(#light)" stroke-width="3"/><circle cx="215" cy="397" r="5" fill="url(#light)" stroke-width="3"/><circle cx="307" cy="397" r="5" fill="url(#light)" stroke-width="3"/></g></svg>